<?xml version="1.0" encoding="utf-8"?>
<!-- Generator: Adobe Illustrator 27.5.0, SVG Export Plug-In . SVG Version: 6.00 Build 0)  -->
<svg version="1.1" id="Layer_1" xmlns="http://www.w3.org/2000/svg" xmlns:xlink="http://www.w3.org/1999/xlink" x="0px" y="0px"
	 viewBox="0 0 239.5 20" style="enable-background:new 0 0 239.5 20;" xml:space="preserve">
<style type="text/css">
	.st0{fill:#FFFFFF;filter:url(#Adobe_OpacityMaskFilter);}
	.st1{mask:url(#a_00000098204198976640896960000004810314991790995890_);}
	.st2{fill:#555555;}
	.st3{fill:#79A85A;}
	.st4{fill:#2D2D2D;}
	.st5{font-family:'Verdana';}
	.st6{font-size:11px;}
	.st7{fill:#FFFFFF;}
</style>
<defs>
	<filter id="Adobe_OpacityMaskFilter" filterUnits="userSpaceOnUse" x="0" y="0" width="239.5" height="20">
		<feColorMatrix  type="matrix" values="1 0 0 0 0  0 1 0 0 0  0 0 1 0 0  0 0 0 1 0"/>
	</filter>
</defs>
<mask maskUnits="userSpaceOnUse" x="0" y="0" width="239.5" height="20" id="a_00000098204198976640896960000004810314991790995890_">
	<path class="st0" d="M3.9,0h231.7c2.1,0,3.9,1.3,3.9,3v14c0,1.7-1.7,3-3.9,3H3.9C1.7,20,0,18.7,0,17V3C0,1.3,1.7,0,3.9,0z"/>
</mask>
<g class="st1">
	<path class="st2" d="M0,0h66.7v20H0V0z"/>
	<path class="st3" d="M66.7,0h172.8v20H66.7V0z"/>
</g>
<g>
	<text transform="matrix(1 0 0 1 1.1949 14.4807)" class="st4 st5 st6">Manuscript:</text>
	<text transform="matrix(1 0 0 1 68.341 14.4813)" class="st4 st5 st6">10.1038/s41586-023-05936-6</text>
</g>
<g>
	<text transform="matrix(1 0 0 1 1.9149 13.7607)" class="st7 st5 st6">Manuscript:</text>
	<text transform="matrix(1 0 0 1 69.061 13.7613)" class="st7 st5 st6">10.1038/s41586-023-05936-6</text>
</g>
</svg>
